# xmcd CD database file
#
# Track frame offsets:
#	150
#	22675
#	125025
#	139937
#	173075
#	177912
#	199787
#	223712
#	227912
#	325125
#
# Disc length: 4502 seconds
#
# Revision: 0
# Processed by: cddbd v1.5.2PL0 Copyright (c) Steve Scherf et al.
# Submitted via: CDex 1.51
#
DISCID=8c11940a
DTITLE=Christian Röver Trio - New York Impressions
DYEAR=1995
DGENRE=Jazz
TTITLE0=Hip To The Bone
TTITLE1=New York Impressions
TTITLE2=I Watch You Like TV
TTITLE3=In The Meantime
TTITLE4=Rock Me Daddy
TTITLE5=All The Things She Will Be
TTITLE6=Grey Is The Color Of Hope
TTITLE7=Gigantic Steps
TTITLE8=Bowing To The Inevitable
TTITLE9=All The Things He Could Have Been
EXTD=YEAR: 1995
EXTT0=
EXTT1=
EXTT2=
EXTT3=
EXTT4=
EXTT5=
EXTT6=
EXTT7=
EXTT8=
EXTT9=
PLAYORDER=
